<mxfile host="app.diagrams.net" modified="2023-04-26T11:50:16.656Z" agent="Mozilla/5.0 (Windows NT 10.0; Win64; x64) AppleWebKit/537.36 (KHTML, like Gecko) Chrome/110.0.0.0 YaBrowser/23.3.2.810 Yowser/2.5 Safari/537.36" etag="-7-ryJAaP7Ftgwk_LsgP" version="21.2.2" type="device" pages="2">
  <diagram name="Page-1" id="edf60f1a-56cd-e834-aa8a-f176f3a09ee4">
    <mxGraphModel dx="3963" dy="1649" grid="1" gridSize="10" guides="1" tooltips="1" connect="1" arrows="1" fold="1" page="1" pageScale="1" pageWidth="1100" pageHeight="850" background="none" math="0" shadow="0">
      <root>
        <mxCell id="0" />
        <mxCell id="1" parent="0" />
        <mxCell id="fyhCHOeQunyPdjg_XLVb-3" value="&lt;font style=&quot;font-size: 24px;&quot;&gt;Начало&lt;/font&gt;" style="rounded=1;whiteSpace=wrap;html=1;" vertex="1" parent="1">
          <mxGeometry x="400" y="10" width="120" height="60" as="geometry" />
        </mxCell>
        <mxCell id="fyhCHOeQunyPdjg_XLVb-4" value="" style="endArrow=classic;html=1;rounded=0;exitX=0.5;exitY=1;exitDx=0;exitDy=0;" edge="1" parent="1" source="fyhCHOeQunyPdjg_XLVb-5">
          <mxGeometry width="50" height="50" relative="1" as="geometry">
            <mxPoint x="-30" y="330" as="sourcePoint" />
            <mxPoint x="460" y="130" as="targetPoint" />
          </mxGeometry>
        </mxCell>
        <mxCell id="fyhCHOeQunyPdjg_XLVb-6" value="" style="endArrow=classic;html=1;rounded=0;exitX=0.5;exitY=1;exitDx=0;exitDy=0;" edge="1" parent="1" source="fyhCHOeQunyPdjg_XLVb-5">
          <mxGeometry width="50" height="50" relative="1" as="geometry">
            <mxPoint x="460" y="210" as="sourcePoint" />
            <mxPoint x="460" y="250" as="targetPoint" />
          </mxGeometry>
        </mxCell>
        <mxCell id="fyhCHOeQunyPdjg_XLVb-7" value="" style="endArrow=classic;html=1;rounded=0;exitX=0.5;exitY=1;exitDx=0;exitDy=0;" edge="1" parent="1" source="fyhCHOeQunyPdjg_XLVb-3" target="fyhCHOeQunyPdjg_XLVb-5">
          <mxGeometry width="50" height="50" relative="1" as="geometry">
            <mxPoint x="460" y="70" as="sourcePoint" />
            <mxPoint x="460" y="130" as="targetPoint" />
          </mxGeometry>
        </mxCell>
        <mxCell id="fyhCHOeQunyPdjg_XLVb-5" value="ввод" style="shape=parallelogram;perimeter=parallelogramPerimeter;whiteSpace=wrap;html=1;fixedSize=1;" vertex="1" parent="1">
          <mxGeometry x="400" y="110" width="120" height="60" as="geometry" />
        </mxCell>
        <mxCell id="fyhCHOeQunyPdjg_XLVb-8" value="1" style="rhombus;whiteSpace=wrap;html=1;" vertex="1" parent="1">
          <mxGeometry x="420" y="220" width="80" height="80" as="geometry" />
        </mxCell>
        <mxCell id="fyhCHOeQunyPdjg_XLVb-9" value="да" style="text;html=1;align=center;verticalAlign=middle;resizable=0;points=[];autosize=1;strokeColor=none;fillColor=none;" vertex="1" parent="1">
          <mxGeometry x="490" y="230" width="40" height="30" as="geometry" />
        </mxCell>
        <mxCell id="fyhCHOeQunyPdjg_XLVb-10" value="нет" style="text;html=1;align=center;verticalAlign=middle;resizable=0;points=[];autosize=1;strokeColor=none;fillColor=none;" vertex="1" parent="1">
          <mxGeometry x="390" y="220" width="40" height="30" as="geometry" />
        </mxCell>
        <mxCell id="fyhCHOeQunyPdjg_XLVb-14" value="" style="endArrow=classic;html=1;rounded=0;" edge="1" parent="1">
          <mxGeometry width="50" height="50" relative="1" as="geometry">
            <mxPoint x="420" y="258.18" as="sourcePoint" />
            <mxPoint x="330" y="300" as="targetPoint" />
            <Array as="points">
              <mxPoint x="330" y="258" />
            </Array>
          </mxGeometry>
        </mxCell>
        <mxCell id="fyhCHOeQunyPdjg_XLVb-17" value="да" style="text;html=1;align=center;verticalAlign=middle;resizable=0;points=[];autosize=1;strokeColor=none;fillColor=none;" vertex="1" parent="1">
          <mxGeometry x="490" y="230" width="40" height="30" as="geometry" />
        </mxCell>
        <mxCell id="fyhCHOeQunyPdjg_XLVb-20" value="" style="endArrow=classic;html=1;rounded=0;" edge="1" parent="1">
          <mxGeometry width="50" height="50" relative="1" as="geometry">
            <mxPoint x="500" y="260" as="sourcePoint" />
            <mxPoint x="590" y="300" as="targetPoint" />
            <Array as="points">
              <mxPoint x="590" y="260" />
            </Array>
          </mxGeometry>
        </mxCell>
        <mxCell id="fyhCHOeQunyPdjg_XLVb-22" value="&lt;font style=&quot;font-size: 18px;&quot;&gt;понедельник&lt;/font&gt;" style="shape=parallelogram;perimeter=parallelogramPerimeter;whiteSpace=wrap;html=1;fixedSize=1;" vertex="1" parent="1">
          <mxGeometry x="520" y="300" width="120" height="60" as="geometry" />
        </mxCell>
        <mxCell id="fyhCHOeQunyPdjg_XLVb-23" value="2" style="rhombus;whiteSpace=wrap;html=1;" vertex="1" parent="1">
          <mxGeometry x="290" y="302" width="80" height="80" as="geometry" />
        </mxCell>
        <mxCell id="fyhCHOeQunyPdjg_XLVb-24" value="да" style="text;html=1;align=center;verticalAlign=middle;resizable=0;points=[];autosize=1;strokeColor=none;fillColor=none;" vertex="1" parent="1">
          <mxGeometry x="360" y="312" width="40" height="30" as="geometry" />
        </mxCell>
        <mxCell id="fyhCHOeQunyPdjg_XLVb-25" value="нет" style="text;html=1;align=center;verticalAlign=middle;resizable=0;points=[];autosize=1;strokeColor=none;fillColor=none;" vertex="1" parent="1">
          <mxGeometry x="260" y="302" width="40" height="30" as="geometry" />
        </mxCell>
        <mxCell id="fyhCHOeQunyPdjg_XLVb-26" value="" style="endArrow=classic;html=1;rounded=0;" edge="1" parent="1">
          <mxGeometry width="50" height="50" relative="1" as="geometry">
            <mxPoint x="290" y="341.18" as="sourcePoint" />
            <mxPoint x="200" y="383" as="targetPoint" />
            <Array as="points">
              <mxPoint x="200" y="341" />
            </Array>
          </mxGeometry>
        </mxCell>
        <mxCell id="fyhCHOeQunyPdjg_XLVb-27" value="да" style="text;html=1;align=center;verticalAlign=middle;resizable=0;points=[];autosize=1;strokeColor=none;fillColor=none;" vertex="1" parent="1">
          <mxGeometry x="360" y="312" width="40" height="30" as="geometry" />
        </mxCell>
        <mxCell id="fyhCHOeQunyPdjg_XLVb-28" value="" style="endArrow=classic;html=1;rounded=0;" edge="1" parent="1">
          <mxGeometry width="50" height="50" relative="1" as="geometry">
            <mxPoint x="370" y="342" as="sourcePoint" />
            <mxPoint x="460" y="382" as="targetPoint" />
            <Array as="points">
              <mxPoint x="460" y="342" />
            </Array>
          </mxGeometry>
        </mxCell>
        <mxCell id="fyhCHOeQunyPdjg_XLVb-30" value="&lt;font style=&quot;font-size: 18px;&quot;&gt;понедельник&lt;/font&gt;" style="shape=parallelogram;perimeter=parallelogramPerimeter;whiteSpace=wrap;html=1;fixedSize=1;" vertex="1" parent="1">
          <mxGeometry x="390" y="382" width="120" height="60" as="geometry" />
        </mxCell>
        <mxCell id="fyhCHOeQunyPdjg_XLVb-32" value="" style="endArrow=classic;html=1;rounded=0;" edge="1" parent="1">
          <mxGeometry width="50" height="50" relative="1" as="geometry">
            <mxPoint x="420" y="259.18" as="sourcePoint" />
            <mxPoint x="330" y="301" as="targetPoint" />
            <Array as="points">
              <mxPoint x="330" y="259" />
            </Array>
          </mxGeometry>
        </mxCell>
        <mxCell id="fyhCHOeQunyPdjg_XLVb-33" value="3" style="rhombus;whiteSpace=wrap;html=1;" vertex="1" parent="1">
          <mxGeometry x="160" y="384" width="80" height="80" as="geometry" />
        </mxCell>
        <mxCell id="fyhCHOeQunyPdjg_XLVb-34" value="да" style="text;html=1;align=center;verticalAlign=middle;resizable=0;points=[];autosize=1;strokeColor=none;fillColor=none;" vertex="1" parent="1">
          <mxGeometry x="230" y="394" width="40" height="30" as="geometry" />
        </mxCell>
        <mxCell id="fyhCHOeQunyPdjg_XLVb-35" value="нет" style="text;html=1;align=center;verticalAlign=middle;resizable=0;points=[];autosize=1;strokeColor=none;fillColor=none;" vertex="1" parent="1">
          <mxGeometry x="130" y="384" width="40" height="30" as="geometry" />
        </mxCell>
        <mxCell id="fyhCHOeQunyPdjg_XLVb-36" value="" style="endArrow=classic;html=1;rounded=0;" edge="1" parent="1">
          <mxGeometry width="50" height="50" relative="1" as="geometry">
            <mxPoint x="160" y="423.18000000000006" as="sourcePoint" />
            <mxPoint x="70" y="465" as="targetPoint" />
            <Array as="points">
              <mxPoint x="70" y="423" />
            </Array>
          </mxGeometry>
        </mxCell>
        <mxCell id="fyhCHOeQunyPdjg_XLVb-37" value="да" style="text;html=1;align=center;verticalAlign=middle;resizable=0;points=[];autosize=1;strokeColor=none;fillColor=none;" vertex="1" parent="1">
          <mxGeometry x="230" y="394" width="40" height="30" as="geometry" />
        </mxCell>
        <mxCell id="fyhCHOeQunyPdjg_XLVb-38" value="" style="endArrow=classic;html=1;rounded=0;" edge="1" parent="1">
          <mxGeometry width="50" height="50" relative="1" as="geometry">
            <mxPoint x="240" y="424" as="sourcePoint" />
            <mxPoint x="330" y="464" as="targetPoint" />
            <Array as="points">
              <mxPoint x="330" y="424" />
            </Array>
          </mxGeometry>
        </mxCell>
        <mxCell id="fyhCHOeQunyPdjg_XLVb-40" value="&lt;font style=&quot;font-size: 18px;&quot;&gt;понедельник&lt;/font&gt;" style="shape=parallelogram;perimeter=parallelogramPerimeter;whiteSpace=wrap;html=1;fixedSize=1;" vertex="1" parent="1">
          <mxGeometry x="260" y="464" width="120" height="60" as="geometry" />
        </mxCell>
        <mxCell id="fyhCHOeQunyPdjg_XLVb-41" value="" style="endArrow=classic;html=1;rounded=0;" edge="1" parent="1">
          <mxGeometry width="50" height="50" relative="1" as="geometry">
            <mxPoint x="290" y="342.18" as="sourcePoint" />
            <mxPoint x="200" y="384" as="targetPoint" />
            <Array as="points">
              <mxPoint x="200" y="342" />
            </Array>
          </mxGeometry>
        </mxCell>
        <mxCell id="fyhCHOeQunyPdjg_XLVb-42" value="4" style="rhombus;whiteSpace=wrap;html=1;" vertex="1" parent="1">
          <mxGeometry x="30" y="466" width="80" height="80" as="geometry" />
        </mxCell>
        <mxCell id="fyhCHOeQunyPdjg_XLVb-43" value="да" style="text;html=1;align=center;verticalAlign=middle;resizable=0;points=[];autosize=1;strokeColor=none;fillColor=none;" vertex="1" parent="1">
          <mxGeometry x="100" y="476" width="40" height="30" as="geometry" />
        </mxCell>
        <mxCell id="fyhCHOeQunyPdjg_XLVb-44" value="нет" style="text;html=1;align=center;verticalAlign=middle;resizable=0;points=[];autosize=1;strokeColor=none;fillColor=none;" vertex="1" parent="1">
          <mxGeometry y="466" width="40" height="30" as="geometry" />
        </mxCell>
        <mxCell id="fyhCHOeQunyPdjg_XLVb-45" value="" style="endArrow=classic;html=1;rounded=0;" edge="1" parent="1">
          <mxGeometry width="50" height="50" relative="1" as="geometry">
            <mxPoint x="30" y="504.18000000000006" as="sourcePoint" />
            <mxPoint x="-60" y="546" as="targetPoint" />
            <Array as="points">
              <mxPoint x="-60" y="504" />
            </Array>
          </mxGeometry>
        </mxCell>
        <mxCell id="fyhCHOeQunyPdjg_XLVb-46" value="да" style="text;html=1;align=center;verticalAlign=middle;resizable=0;points=[];autosize=1;strokeColor=none;fillColor=none;" vertex="1" parent="1">
          <mxGeometry x="100" y="476" width="40" height="30" as="geometry" />
        </mxCell>
        <mxCell id="fyhCHOeQunyPdjg_XLVb-47" value="" style="endArrow=classic;html=1;rounded=0;" edge="1" parent="1">
          <mxGeometry width="50" height="50" relative="1" as="geometry">
            <mxPoint x="110" y="506" as="sourcePoint" />
            <mxPoint x="200" y="546" as="targetPoint" />
            <Array as="points">
              <mxPoint x="200" y="506" />
            </Array>
          </mxGeometry>
        </mxCell>
        <mxCell id="fyhCHOeQunyPdjg_XLVb-49" value="&lt;font style=&quot;font-size: 18px;&quot;&gt;понедельник&lt;/font&gt;" style="shape=parallelogram;perimeter=parallelogramPerimeter;whiteSpace=wrap;html=1;fixedSize=1;" vertex="1" parent="1">
          <mxGeometry x="130" y="546" width="120" height="60" as="geometry" />
        </mxCell>
        <mxCell id="fyhCHOeQunyPdjg_XLVb-50" value="" style="endArrow=classic;html=1;rounded=0;" edge="1" parent="1">
          <mxGeometry width="50" height="50" relative="1" as="geometry">
            <mxPoint x="160" y="424.18000000000006" as="sourcePoint" />
            <mxPoint x="70" y="466" as="targetPoint" />
            <Array as="points">
              <mxPoint x="70" y="424" />
            </Array>
          </mxGeometry>
        </mxCell>
        <mxCell id="fyhCHOeQunyPdjg_XLVb-51" value="5" style="rhombus;whiteSpace=wrap;html=1;" vertex="1" parent="1">
          <mxGeometry x="-100" y="548" width="80" height="80" as="geometry" />
        </mxCell>
        <mxCell id="fyhCHOeQunyPdjg_XLVb-52" value="да" style="text;html=1;align=center;verticalAlign=middle;resizable=0;points=[];autosize=1;strokeColor=none;fillColor=none;" vertex="1" parent="1">
          <mxGeometry x="-30" y="558" width="40" height="30" as="geometry" />
        </mxCell>
        <mxCell id="fyhCHOeQunyPdjg_XLVb-53" value="нет" style="text;html=1;align=center;verticalAlign=middle;resizable=0;points=[];autosize=1;strokeColor=none;fillColor=none;" vertex="1" parent="1">
          <mxGeometry x="-130" y="548" width="40" height="30" as="geometry" />
        </mxCell>
        <mxCell id="fyhCHOeQunyPdjg_XLVb-54" value="" style="endArrow=classic;html=1;rounded=0;" edge="1" parent="1">
          <mxGeometry width="50" height="50" relative="1" as="geometry">
            <mxPoint x="-100" y="587.1800000000001" as="sourcePoint" />
            <mxPoint x="-190" y="629" as="targetPoint" />
            <Array as="points">
              <mxPoint x="-190" y="587" />
            </Array>
          </mxGeometry>
        </mxCell>
        <mxCell id="fyhCHOeQunyPdjg_XLVb-55" value="да" style="text;html=1;align=center;verticalAlign=middle;resizable=0;points=[];autosize=1;strokeColor=none;fillColor=none;" vertex="1" parent="1">
          <mxGeometry x="-30" y="558" width="40" height="30" as="geometry" />
        </mxCell>
        <mxCell id="fyhCHOeQunyPdjg_XLVb-56" value="" style="endArrow=classic;html=1;rounded=0;" edge="1" parent="1">
          <mxGeometry width="50" height="50" relative="1" as="geometry">
            <mxPoint x="-20" y="588" as="sourcePoint" />
            <mxPoint x="70" y="628" as="targetPoint" />
            <Array as="points">
              <mxPoint x="70" y="588" />
            </Array>
          </mxGeometry>
        </mxCell>
        <mxCell id="fyhCHOeQunyPdjg_XLVb-58" value="&lt;font style=&quot;font-size: 18px;&quot;&gt;понедельник&lt;/font&gt;" style="shape=parallelogram;perimeter=parallelogramPerimeter;whiteSpace=wrap;html=1;fixedSize=1;" vertex="1" parent="1">
          <mxGeometry y="628" width="120" height="60" as="geometry" />
        </mxCell>
        <mxCell id="fyhCHOeQunyPdjg_XLVb-59" value="" style="endArrow=classic;html=1;rounded=0;" edge="1" parent="1">
          <mxGeometry width="50" height="50" relative="1" as="geometry">
            <mxPoint x="30" y="505.18" as="sourcePoint" />
            <mxPoint x="-60" y="547" as="targetPoint" />
            <Array as="points">
              <mxPoint x="-60" y="505" />
            </Array>
          </mxGeometry>
        </mxCell>
        <mxCell id="fyhCHOeQunyPdjg_XLVb-69" value="6" style="rhombus;whiteSpace=wrap;html=1;" vertex="1" parent="1">
          <mxGeometry x="-230" y="630" width="80" height="80" as="geometry" />
        </mxCell>
        <mxCell id="fyhCHOeQunyPdjg_XLVb-70" value="да" style="text;html=1;align=center;verticalAlign=middle;resizable=0;points=[];autosize=1;strokeColor=none;fillColor=none;" vertex="1" parent="1">
          <mxGeometry x="-160" y="640" width="40" height="30" as="geometry" />
        </mxCell>
        <mxCell id="fyhCHOeQunyPdjg_XLVb-71" value="нет" style="text;html=1;align=center;verticalAlign=middle;resizable=0;points=[];autosize=1;strokeColor=none;fillColor=none;" vertex="1" parent="1">
          <mxGeometry x="-260" y="630" width="40" height="30" as="geometry" />
        </mxCell>
        <mxCell id="fyhCHOeQunyPdjg_XLVb-72" value="" style="endArrow=classic;html=1;rounded=0;" edge="1" parent="1">
          <mxGeometry width="50" height="50" relative="1" as="geometry">
            <mxPoint x="-230" y="668.1800000000001" as="sourcePoint" />
            <mxPoint x="-320" y="710" as="targetPoint" />
            <Array as="points">
              <mxPoint x="-320" y="668" />
            </Array>
          </mxGeometry>
        </mxCell>
        <mxCell id="fyhCHOeQunyPdjg_XLVb-73" value="да" style="text;html=1;align=center;verticalAlign=middle;resizable=0;points=[];autosize=1;strokeColor=none;fillColor=none;" vertex="1" parent="1">
          <mxGeometry x="-160" y="640" width="40" height="30" as="geometry" />
        </mxCell>
        <mxCell id="fyhCHOeQunyPdjg_XLVb-74" value="" style="endArrow=classic;html=1;rounded=0;" edge="1" parent="1">
          <mxGeometry width="50" height="50" relative="1" as="geometry">
            <mxPoint x="-150" y="670" as="sourcePoint" />
            <mxPoint x="-60" y="710" as="targetPoint" />
            <Array as="points">
              <mxPoint x="-60" y="670" />
            </Array>
          </mxGeometry>
        </mxCell>
        <mxCell id="fyhCHOeQunyPdjg_XLVb-76" value="&lt;font style=&quot;font-size: 18px;&quot;&gt;понедельник&lt;/font&gt;" style="shape=parallelogram;perimeter=parallelogramPerimeter;whiteSpace=wrap;html=1;fixedSize=1;" vertex="1" parent="1">
          <mxGeometry x="-130" y="710" width="120" height="60" as="geometry" />
        </mxCell>
        <mxCell id="fyhCHOeQunyPdjg_XLVb-77" value="" style="endArrow=classic;html=1;rounded=0;" edge="1" parent="1">
          <mxGeometry width="50" height="50" relative="1" as="geometry">
            <mxPoint x="-100" y="588.1800000000001" as="sourcePoint" />
            <mxPoint x="-190" y="630" as="targetPoint" />
            <Array as="points">
              <mxPoint x="-190" y="588" />
            </Array>
          </mxGeometry>
        </mxCell>
        <mxCell id="fyhCHOeQunyPdjg_XLVb-87" value="7" style="rhombus;whiteSpace=wrap;html=1;" vertex="1" parent="1">
          <mxGeometry x="-360" y="712" width="80" height="80" as="geometry" />
        </mxCell>
        <mxCell id="fyhCHOeQunyPdjg_XLVb-88" value="да" style="text;html=1;align=center;verticalAlign=middle;resizable=0;points=[];autosize=1;strokeColor=none;fillColor=none;" vertex="1" parent="1">
          <mxGeometry x="-290" y="722" width="40" height="30" as="geometry" />
        </mxCell>
        <mxCell id="fyhCHOeQunyPdjg_XLVb-89" value="нет" style="text;html=1;align=center;verticalAlign=middle;resizable=0;points=[];autosize=1;strokeColor=none;fillColor=none;" vertex="1" parent="1">
          <mxGeometry x="-390" y="712" width="40" height="30" as="geometry" />
        </mxCell>
        <mxCell id="fyhCHOeQunyPdjg_XLVb-90" value="" style="endArrow=classic;html=1;rounded=0;" edge="1" parent="1">
          <mxGeometry width="50" height="50" relative="1" as="geometry">
            <mxPoint x="-360" y="750.1800000000001" as="sourcePoint" />
            <mxPoint x="-450" y="792" as="targetPoint" />
            <Array as="points">
              <mxPoint x="-450" y="750" />
            </Array>
          </mxGeometry>
        </mxCell>
        <mxCell id="fyhCHOeQunyPdjg_XLVb-91" value="да" style="text;html=1;align=center;verticalAlign=middle;resizable=0;points=[];autosize=1;strokeColor=none;fillColor=none;" vertex="1" parent="1">
          <mxGeometry x="-290" y="722" width="40" height="30" as="geometry" />
        </mxCell>
        <mxCell id="fyhCHOeQunyPdjg_XLVb-92" value="" style="endArrow=classic;html=1;rounded=0;" edge="1" parent="1">
          <mxGeometry width="50" height="50" relative="1" as="geometry">
            <mxPoint x="-280" y="752" as="sourcePoint" />
            <mxPoint x="-190" y="792" as="targetPoint" />
            <Array as="points">
              <mxPoint x="-190" y="752" />
            </Array>
          </mxGeometry>
        </mxCell>
        <mxCell id="fyhCHOeQunyPdjg_XLVb-94" value="&lt;font style=&quot;font-size: 18px;&quot;&gt;понедельник&lt;/font&gt;" style="shape=parallelogram;perimeter=parallelogramPerimeter;whiteSpace=wrap;html=1;fixedSize=1;" vertex="1" parent="1">
          <mxGeometry x="-260" y="792" width="120" height="60" as="geometry" />
        </mxCell>
        <mxCell id="fyhCHOeQunyPdjg_XLVb-95" value="" style="endArrow=classic;html=1;rounded=0;" edge="1" parent="1">
          <mxGeometry width="50" height="50" relative="1" as="geometry">
            <mxPoint x="-230" y="669.1800000000001" as="sourcePoint" />
            <mxPoint x="-320" y="711" as="targetPoint" />
            <Array as="points">
              <mxPoint x="-320" y="669" />
            </Array>
          </mxGeometry>
        </mxCell>
        <mxCell id="fyhCHOeQunyPdjg_XLVb-96" value="&lt;font style=&quot;font-size: 18px;&quot;&gt;некорректный.&lt;br&gt;ввод&lt;br&gt;&lt;/font&gt;" style="shape=parallelogram;perimeter=parallelogramPerimeter;whiteSpace=wrap;html=1;fixedSize=1;" vertex="1" parent="1">
          <mxGeometry x="-520" y="790" width="120" height="60" as="geometry" />
        </mxCell>
        <mxCell id="fyhCHOeQunyPdjg_XLVb-98" value="" style="endArrow=none;html=1;rounded=0;" edge="1" parent="1">
          <mxGeometry width="50" height="50" relative="1" as="geometry">
            <mxPoint x="-455" y="840" as="sourcePoint" />
            <mxPoint x="-185" y="850" as="targetPoint" />
            <Array as="points">
              <mxPoint x="-455" y="920" />
              <mxPoint x="-185" y="920" />
            </Array>
          </mxGeometry>
        </mxCell>
        <mxCell id="fyhCHOeQunyPdjg_XLVb-99" value="" style="endArrow=none;html=1;rounded=0;" edge="1" parent="1">
          <mxGeometry width="50" height="50" relative="1" as="geometry">
            <mxPoint x="-331" y="920" as="sourcePoint" />
            <mxPoint x="-61" y="930" as="targetPoint" />
            <Array as="points">
              <mxPoint x="-331" y="1000" />
              <mxPoint x="-61" y="1000" />
            </Array>
          </mxGeometry>
        </mxCell>
        <mxCell id="fyhCHOeQunyPdjg_XLVb-100" value="" style="endArrow=none;html=1;rounded=0;" edge="1" parent="1">
          <mxGeometry width="50" height="50" relative="1" as="geometry">
            <mxPoint x="-195" y="1000" as="sourcePoint" />
            <mxPoint x="75" y="1010" as="targetPoint" />
            <Array as="points">
              <mxPoint x="-195" y="1080" />
              <mxPoint x="75" y="1080" />
            </Array>
          </mxGeometry>
        </mxCell>
        <mxCell id="fyhCHOeQunyPdjg_XLVb-101" value="" style="endArrow=none;html=1;rounded=0;" edge="1" parent="1">
          <mxGeometry width="50" height="50" relative="1" as="geometry">
            <mxPoint x="-71" y="1080" as="sourcePoint" />
            <mxPoint x="199" y="1090" as="targetPoint" />
            <Array as="points">
              <mxPoint x="-71" y="1160" />
              <mxPoint x="199" y="1160" />
            </Array>
          </mxGeometry>
        </mxCell>
        <mxCell id="fyhCHOeQunyPdjg_XLVb-102" value="" style="endArrow=none;html=1;rounded=0;" edge="1" parent="1">
          <mxGeometry width="50" height="50" relative="1" as="geometry">
            <mxPoint x="65" y="1159" as="sourcePoint" />
            <mxPoint x="335" y="1169" as="targetPoint" />
            <Array as="points">
              <mxPoint x="65" y="1239" />
              <mxPoint x="335" y="1239" />
            </Array>
          </mxGeometry>
        </mxCell>
        <mxCell id="fyhCHOeQunyPdjg_XLVb-103" value="" style="endArrow=none;html=1;rounded=0;" edge="1" parent="1">
          <mxGeometry width="50" height="50" relative="1" as="geometry">
            <mxPoint x="189" y="1239" as="sourcePoint" />
            <mxPoint x="459" y="1249" as="targetPoint" />
            <Array as="points">
              <mxPoint x="189" y="1319" />
              <mxPoint x="459" y="1319" />
            </Array>
          </mxGeometry>
        </mxCell>
        <mxCell id="fyhCHOeQunyPdjg_XLVb-104" value="" style="endArrow=none;html=1;rounded=0;" edge="1" parent="1">
          <mxGeometry width="50" height="50" relative="1" as="geometry">
            <mxPoint x="330" y="1319" as="sourcePoint" />
            <mxPoint x="600" y="1329" as="targetPoint" />
            <Array as="points">
              <mxPoint x="330" y="1399" />
              <mxPoint x="600" y="1399" />
            </Array>
          </mxGeometry>
        </mxCell>
        <mxCell id="fyhCHOeQunyPdjg_XLVb-105" value="" style="endArrow=none;html=1;rounded=0;" edge="1" parent="1">
          <mxGeometry width="50" height="50" relative="1" as="geometry">
            <mxPoint x="600" y="1330" as="sourcePoint" />
            <mxPoint x="600" y="360" as="targetPoint" />
          </mxGeometry>
        </mxCell>
        <mxCell id="fyhCHOeQunyPdjg_XLVb-106" value="" style="endArrow=none;html=1;rounded=0;" edge="1" parent="1">
          <mxGeometry width="50" height="50" relative="1" as="geometry">
            <mxPoint x="459" y="1250" as="sourcePoint" />
            <mxPoint x="459.09000000000003" y="430" as="targetPoint" />
          </mxGeometry>
        </mxCell>
        <mxCell id="fyhCHOeQunyPdjg_XLVb-107" value="" style="endArrow=none;html=1;rounded=0;" edge="1" parent="1">
          <mxGeometry width="50" height="50" relative="1" as="geometry">
            <mxPoint x="335" y="1170" as="sourcePoint" />
            <mxPoint x="335" y="530" as="targetPoint" />
          </mxGeometry>
        </mxCell>
        <mxCell id="fyhCHOeQunyPdjg_XLVb-109" value="" style="endArrow=none;html=1;rounded=0;" edge="1" parent="1">
          <mxGeometry width="50" height="50" relative="1" as="geometry">
            <mxPoint x="199" y="1090" as="sourcePoint" />
            <mxPoint x="199.47" y="606" as="targetPoint" />
          </mxGeometry>
        </mxCell>
        <mxCell id="fyhCHOeQunyPdjg_XLVb-111" value="" style="endArrow=none;html=1;rounded=0;" edge="1" parent="1">
          <mxGeometry width="50" height="50" relative="1" as="geometry">
            <mxPoint x="75.53" y="1048" as="sourcePoint" />
            <mxPoint x="75.09" y="688" as="targetPoint" />
          </mxGeometry>
        </mxCell>
        <mxCell id="fyhCHOeQunyPdjg_XLVb-112" value="" style="endArrow=none;html=1;rounded=0;" edge="1" parent="1">
          <mxGeometry width="50" height="50" relative="1" as="geometry">
            <mxPoint x="-61" y="930" as="sourcePoint" />
            <mxPoint x="-61" y="770" as="targetPoint" />
          </mxGeometry>
        </mxCell>
        <mxCell id="fyhCHOeQunyPdjg_XLVb-114" value="" style="endArrow=classic;html=1;rounded=0;" edge="1" parent="1">
          <mxGeometry width="50" height="50" relative="1" as="geometry">
            <mxPoint x="459" y="1400" as="sourcePoint" />
            <mxPoint x="459" y="1490" as="targetPoint" />
          </mxGeometry>
        </mxCell>
        <mxCell id="fyhCHOeQunyPdjg_XLVb-115" value="&lt;font style=&quot;font-size: 18px;&quot;&gt;конец&lt;/font&gt;" style="rounded=1;whiteSpace=wrap;html=1;" vertex="1" parent="1">
          <mxGeometry x="400" y="1490" width="120" height="60" as="geometry" />
        </mxCell>
        <mxCell id="YyD5Hj5XLqjcKRsJKxtj-1" value="" style="endArrow=none;html=1;rounded=0;exitX=0.542;exitY=1.015;exitDx=0;exitDy=0;exitPerimeter=0;" edge="1" parent="1" source="fyhCHOeQunyPdjg_XLVb-96">
          <mxGeometry width="50" height="50" relative="1" as="geometry">
            <mxPoint x="-455" y="840" as="sourcePoint" />
            <mxPoint x="-185" y="850" as="targetPoint" />
            <Array as="points">
              <mxPoint x="-455" y="920" />
              <mxPoint x="-185" y="920" />
            </Array>
          </mxGeometry>
        </mxCell>
      </root>
    </mxGraphModel>
  </diagram>
  <diagram id="lNEafiN8KCtjoKiWfACf" name="Страница 2">
    <mxGraphModel dx="2490" dy="1326" grid="1" gridSize="10" guides="1" tooltips="1" connect="1" arrows="1" fold="1" page="1" pageScale="1" pageWidth="827" pageHeight="1169" math="0" shadow="0">
      <root>
        <mxCell id="0" />
        <mxCell id="1" parent="0" />
      </root>
    </mxGraphModel>
  </diagram>
</mxfile>
